# xmcd CD database file
#
# Track frame offsets:
#	150
#	13470
#	28435
#	44685
#	58997
#	75762
#	91762
#	104500
#	119760
#	132915
#	143440
#	158315
#
# Disc length: 2343 seconds
#
# Revision: 3
# Processed by: cddbd v1.5.2PL0 Copyright (c) Steve Scherf et al.
# Submitted via: CDex 1.51
#
DISCID=9f09250c
DTITLE=Jerry Kilgore - Love Trip
DYEAR=1999
DGENRE=Country
TTITLE0=I Just Want My Baby Back
TTITLE1=Love Trip
TTITLE2=The More I Love You
TTITLE3=All I've Got To Say
TTITLE4=It's Dangerous With You On My Mind
TTITLE5=Don't Tell Me You're Not In Love
TTITLE6=All Hell's Breakin' Loose
TTITLE7=The Look
TTITLE8=If A Man Ain't Thinking ('bout His Woman)
TTITLE9=Lonesome Love List
TTITLE10=The Real Thing
TTITLE11=Cactus In A Coffee Can
EXTD=YEAR: 1999
EXTT0=
EXTT1=
EXTT2=
EXTT3=
EXTT4=
EXTT5=
EXTT6=
EXTT7=
EXTT8=
EXTT9=
EXTT10=
EXTT11=
PLAYORDER=
